# xmcd
#
# Track frame offsets: 
#        150
#        36875
#        56025
#        85643
#        110918
#        130150
#        155170
#        174495
#        183745
#
# Disc length: 2687 seconds
#
# Revision: 0
# Processed by: cddbd v1.5.2PL0 Copyright (c) Steve Scherf et al.
# Submitted via: ExactAudioCopyFreeDBPlugin 1.0
#
DISCID=7d0a7d09
DTITLE=Karl Richter, Münchener Bach-Orchester - Revealing Bach CD9
DYEAR=1900
DGENRE=Baroque - Sacred
TTITLE0=Concert for 2 Harpsichord, Strings and Continuo in C, BWV 1061
TTITLE0=1. Allegro
TTITLE1=Concert for 2 Harpsichord, Strings and Continuo in C, BWV 1061
TTITLE1=2. Adagio ovvero largo
TTITLE2=Concert for 2 Harpsichord, Strings and Continuo in C, BWV 1061
TTITLE2=3. Fuga
TTITLE3=Concert for 3 Harpsichord, Strings and Continuo No 1 in D mino
TTITLE3=r, BWV 1063 - 1. Allegro
TTITLE4=Concert for 3 Harpsichord, Strings and Continuo No 1 in D mino
TTITLE4=r, BWV 1063 - 2. Alla siciliana
TTITLE5=Concert for 3 Harpsichord, Strings and Continuo No 1 in D mino
TTITLE5=r, BWV 1063 - 3. Allegro
TTITLE6=Concert for 4 Harpsichord, Strings and Continuo No 1 in A mino
TTITLE6=r, BWV 1065 - 1. Allegro
TTITLE7=Concert for 4 Harpsichord, Strings and Continuo No 1 in A mino
TTITLE7=r, BWV 1065 - 2. Largo
TTITLE8=Concert for 4 Harpsichord, Strings and Continuo No 1 in A mino
TTITLE8=r, BWV 1065 - 3. Allegro
EXTD=
EXTT0=
EXTT1=
EXTT2=
EXTT3=
EXTT4=
EXTT5=
EXTT6=
EXTT7=
EXTT8=
PLAYORDER=
